HIERARCHY
ROOT Hips
{
	OFFSET 0.00 0.00 0.00
	CHANNELS 6 Xposition Yposition Zposition Xrotation Yrotation Zrotation
	JOINT Spine
	{
		OFFSET 0.00000 1.15266 1.72900
		CHANNELS 3 Xrotation Yrotation Zrotation
		JOINT Spine1
		{
			OFFSET 0.00000 0.40032 2.27031
			CHANNELS 3 Xrotation Yrotation Zrotation
			JOINT Spine2
			{
				OFFSET 0.00000 0.20092 2.29656
				CHANNELS 3 Xrotation Yrotation Zrotation
				JOINT Spine3
				{
					OFFSET 0.00000 0.00000 2.30533
					CHANNELS 3 Xrotation Yrotation Zrotation
					JOINT Neck
					{
						OFFSET 0.00000 -0.86449 6.05149
						CHANNELS 3 Xrotation Yrotation Zrotation
						JOINT Head
						{
							OFFSET 0.00000 -0.55043 3.12167
							CHANNELS 3 Xrotation Yrotation Zrotation
							End Site
							{
								OFFSET 0.00000 0.00000 3.73175
							}
						}
					}
					JOINT RightShoulder
					{
						OFFSET -0.78828 -1.31380 4.25672
						CHANNELS 3 Xrotation Yrotation Zrotation
						JOINT RightArm
						{
							OFFSET -3.91513 0.00000 0.00000
							CHANNELS 3 Xrotation Yrotation Zrotation
							JOINT RightForeArm
							{
								OFFSET -6.91491 0.00000 0.00000
								CHANNELS 3 Xrotation Yrotation Zrotation
								JOINT RightHand
								{
									OFFSET -6.09622 0.00000 0.00000
									CHANNELS 3 Xrotation Yrotation Zrotation
									JOINT RightHandEnd
									{
										OFFSET -1.74995 0.00000 0.00000
										CHANNELS 3 Xrotation Yrotation Zrotation
										End Site
										{
											OFFSET -1.74995 0.00000 0.00000
										}
									}
									JOINT RightHandThumb1
									{
										OFFSET -0.69998 -1.16663 -0.46665
										CHANNELS 3 Yrotation Xrotation Zrotation
										End Site
										{
											OFFSET -1.69032 -0.45292 0.00000
										}
									}
								}
							}
						}
					}
					JOINT LeftShoulder
					{
						OFFSET 0.78828 -1.31380 4.25672
						CHANNELS 3 Xrotation Yrotation Zrotation
						JOINT LeftArm
						{
							OFFSET 3.91513 0.00000 0.00000
							CHANNELS 3 Xrotation Yrotation Zrotation
							JOINT LeftForeArm
							{
								OFFSET 6.91491 0.00000 0.00000
								CHANNELS 3 Xrotation Yrotation Zrotation
								JOINT LeftHand
								{
									OFFSET 6.09622 0.00000 0.00000
									CHANNELS 3 Xrotation Yrotation Zrotation
									JOINT LeftHandEnd
									{
										OFFSET 1.74995 0.00000 0.00000
										CHANNELS 3 Xrotation Yrotation Zrotation
										End Site
										{
											OFFSET 1.74995 0.00000 0.00000
										}
									}
									JOINT LeftHandThumb1
									{
										OFFSET 0.69998 -1.16663 -0.46665
										CHANNELS 3 Yrotation Xrotation Zrotation
										End Site
										{
											OFFSET 1.69032 -0.45292 0.00000
										}
									}
								}
							}
						}
					}
				}
			}
		}
	}
	JOINT RightUpLeg
	{
		OFFSET -2.33857 0.00000 -0.68318
		CHANNELS 3 Xrotation Yrotation Zrotation
		JOINT RightLeg
		{
			OFFSET 0.00000 0.00000 -10.74496
			CHANNELS 3 Xrotation Yrotation Zrotation
			JOINT RightFoot
			{
				OFFSET 0.00000 0.00000 -10.93085
				CHANNELS 3 Xrotation Yrotation Zrotation
				JOINT RightToeBase
				{
					OFFSET 0.00000 -4.08727 -1.48765
					CHANNELS 3 Xrotation Yrotation Zrotation
					End Site
					{
						OFFSET 0.00000 -1.89187 -0.00000
					}
				}
			}
		}
	}
	JOINT LeftUpLeg
	{
		OFFSET 2.33857 0.00000 -0.68318
		CHANNELS 3 Xrotation Yrotation Zrotation
		JOINT LeftLeg
		{
			OFFSET 0.00000 0.00000 -10.74496
			CHANNELS 3 Xrotation Yrotation Zrotation
			JOINT LeftFoot
			{
				OFFSET 0.00000 0.00000 -10.93085
				CHANNELS 3 Xrotation Yrotation Zrotation
				JOINT LeftToeBase
				{
					OFFSET 0.00000 -4.08727 -1.48765
					CHANNELS 3 Xrotation Yrotation Zrotation
					End Site
					{
						OFFSET 0.00000 -1.89187 -0.00000
					}
				}
			}
		}
	}
}
MOTION
Frames: 6
Frame Time:	0.0333333
 -1.9852 -114.6422 24.4411 -0.8242 -1.4894 167.1556 4.8497 -2.1782 0.1685 1.3813 -2.9946 -0.2768 5.3262 3.4726 6.3016 -3.6501 2.0161 -0.0148 -18.7736 3.8692 -3.8062 9.3377 2.1254 -10.0458 -4.4305 -1.8670 0.8035 -5.5847 3.9439 1.8775 0.0000 0.0000 12.2243 -1.6765 0.0758 -8.2560 -0.0000 0.0000 -0.0000 -0.0000 -0.0000 -0.0000 -6.3966 6.0453 0.5742 -0.0611 -3.4180 -8.3874 -0.0000 -0.0000 -0.4233 2.2066 3.6297 0.3650 0.0000 0.0000 -0.0000 -0.0000 -0.0000 0.0000 -1.2431 1.7319 -9.9615 2.2158 0.0000 0.0000 -1.8981 -1.2899 12.0203 0.6672 0.0000 0.0000 2.1337 -3.6068 5.3806 -1.4643 0.0000 -0.0000 -4.9968 3.3523 15.8444 -2.4767 0.0000 -0.0000
 -1.9753 -114.6656 24.4420 -0.9904 -1.4678 167.0748 4.8930 -2.1421 0.1715 1.3648 -2.9443 -0.2663 5.2755 3.4133 6.2879 -3.6742 1.9750 0.0058 -18.9296 3.7472 -3.8063 9.0567 2.0157 -10.0079 -4.3294 -1.6882 0.8055 -5.5935 3.8300 1.8138 0.0000 0.0000 12.2078 -1.7360 -0.0013 -8.3140 0.0000 0.0000 0.0000 -0.0000 -0.0000 -0.0000 -6.2504 5.8582 0.4817 -0.0892 -3.2950 -8.3552 -0.0000 -0.0000 -0.4407 2.4120 3.5261 0.6307 -0.0000 -0.0000 -0.0000 0.0000 -0.0000 0.0000 -1.4766 1.6791 -9.9458 2.2031 0.0000 0.0000 -1.7912 -1.2880 12.0750 0.6414 0.0000 0.0000 1.9287 -3.6649 5.4346 -1.4732 0.0000 -0.0000 -4.9553 3.4491 15.8548 -2.4690 0.0000 -0.0000
 -1.9590 -114.7029 24.4439 -1.2982 -1.4133 166.9532 4.9046 -2.0633 0.1736 1.3295 -2.8628 -0.2484 5.2080 3.3167 6.2625 -3.7097 1.8985 0.0353 -19.1599 3.5454 -3.7832 8.5992 1.8396 -9.9410 -4.1765 -1.4394 0.8159 -5.5608 3.7121 1.7171 0.0000 0.0000 12.1726 -2.0402 -0.0750 -8.3196 0.0000 -0.0000 -0.0000 -0.0000 0.0000 -0.0000 -6.0778 5.6035 0.3737 -0.1173 -3.1371 -8.3314 -0.0000 -0.0000 -0.4275 2.6589 3.3954 1.0473 0.0000 -0.0000 -0.0000 -0.0000 -0.0000 0.0000 -1.8742 1.5925 -9.9530 2.1505 0.0000 0.0000 -1.6798 -1.1803 12.1925 0.7237 0.0000 0.0000 1.5268 -3.7464 5.5315 -1.4447 0.0000 -0.0000 -4.8671 3.5422 15.8638 -2.4295 0.0000 -0.0000
 -1.9408 -114.7351 24.4452 -1.5912 -1.3665 166.8325 4.9244 -1.9651 0.1709 1.3101 -2.7700 -0.2300 5.0796 3.1922 6.2261 -3.7464 1.8003 0.0626 -19.2921 3.3412 -3.7323 8.1101 1.6810 -9.8591 -4.0545 -1.1674 0.8317 -5.5938 3.5794 1.6546 0.0000 0.0000 12.1322 -3.0484 -0.1064 -8.1708 -0.0000 0.0000 0.0000 -0.0000 -0.0000 0.0000 -5.9243 5.3455 0.3169 -0.1321 -2.9429 -8.2908 -0.0000 -0.0000 -0.3985 2.4904 3.1984 1.3925 -0.0000 -0.0000 -0.0000 0.0000 0.0000 0.0000 -2.2271 1.4944 -9.9944 2.0761 0.0000 0.0000 -1.5940 -1.0479 12.3448 0.8352 0.0000 0.0000 1.1470 -3.8340 5.6123 -1.4004 0.0000 -0.0000 -4.8101 3.6012 15.8899 -2.3552 0.0000 -0.0000
 -1.9229 -114.7534 24.4456 -1.7776 -1.3490 166.7344 5.0224 -1.8536 0.1614 1.3495 -2.6668 -0.2133 4.8130 3.0238 6.1716 -3.8102 1.7037 0.0809 -19.2425 3.1787 -3.6620 7.6924 1.5581 -9.7909 -3.9602 -0.8972 0.8580 -5.6822 3.4117 1.6413 0.0000 0.0000 12.1391 -4.5247 -0.0872 -7.9313 0.0000 -0.0000 -0.0000 -0.0000 0.0000 0.0000 -5.7593 5.1087 0.3568 -0.0640 -2.7317 -8.1988 -0.0000 -0.0000 -0.4542 1.8157 2.9088 1.5124 0.0000 0.0000 0.0000 0.0000 -0.0000 0.0000 -2.4471 1.4060 -10.0005 2.0377 0.0000 0.0000 -1.5330 -0.9816 12.4411 0.8607 0.0000 0.0000 0.9288 -3.9187 5.6562 -1.3828 0.0000 -0.0000 -4.8139 3.6713 15.9362 -2.2973 0.0000 -0.0000
 -1.9046 -114.7607 24.4464 -1.8241 -1.3516 166.6780 5.2564 -1.7268 0.1449 1.4406 -2.5584 -0.2005 4.4243 2.8502 6.0987 -3.9060 1.6158 0.0900 -19.0830 3.0518 -3.6012 7.3738 1.4102 -9.7722 -3.7983 -0.6302 0.8921 -5.6950 3.2079 1.6224 0.0000 0.0000 12.2223 -5.5579 0.0167 -7.7536 -0.0000 0.0000 -0.0000 0.0000 0.0000 0.0000 -5.5754 4.8694 0.4714 0.0702 -2.5221 -8.0881 -0.0000 -0.0000 -0.6366 1.1087 2.6141 1.4578 0.0000 0.0000 0.0000 0.0000 0.0000 0.0000 -2.5070 1.3412 -9.9517 2.0334 0.0000 0.0000 -1.5077 -0.9690 12.4472 0.8170 0.0000 0.0000 0.8874 -3.9846 5.7037 -1.3851 0.0000 -0.0000 -4.8080 3.7479 15.9535 -2.3086 0.0000 -0.0000
